{"title":"Promised.Land.2012.DVDSCR.XVID.AC3.AbsurdiTy","uid":8060490,"size":1466642680,"categoryP":"video","categoryS":"movies","magnet":"?xt=urn:btih:89cbcc53ad64402d010306b4c0391720329516e4&amp;dn=Promised.Land.2012.DVDSCR.XVID.AC3.AbsurdiTy&amp;tr=udp%3A%2F%2Ftracker.openbittorrent.com%3A80&amp;tr=udp%3A%2F%2Fopen.demonii.com%3A1337&amp;tr=udp%3A%2F%2Ftracker.coppersurfer.tk%3A6969&amp;tr=udp%3A%2F%2Fexodus.desync.com%3A6969","seeders":1,"leechers":0,"uploader":"xxxlavalxxx","files":2,"time":1359056306,"description":" &lt;a href=&quot;http://www.shotpix.com/images/66455315344479519299.jpg&quot; rel=&quot;nofollow&quot; target=&quot;_NEW&quot;&gt;http://www.shotpix.com/images/66455315344479519299.jpg&lt;/a&gt;\n\n &lt;a href=&quot;\nhttp://www.imdb.com/title/tt2091473/&quot; rel=&quot;nofollow&quot; target=&quot;_NEW&quot;&gt;\nhttp://www.imdb.com/title/tt2091473/&lt;/a&gt;\n\n &lt;a href=&quot;\nhttp://www.shotpix.com/images/73432447722386001981.png&quot; rel=&quot;nofollow&quot; target=&quot;_NEW&quot;&gt;\nhttp://www.shotpix.com/images/73432447722386001981.png&lt;/a&gt;\n\n\nA salesman for a natural gas company experiences life-changing events after arriving in a small town, where his corporation wants to tap into the available resources.\n \n\n\nDirector: \nGus Van Sant\n\n Writers: \nJohn Krasinski (screenplay), Matt Damon  \n\nStars:\n Matt Damon, Frances McDormand and John Krasinski \n\nGenres:\n Drama \n\n\nFormat                                   : AVI\nFormat/Info                              : Audio Video Interleave\nFile size                                : 1.37 GiB\nDuration                                 : 1h 46mn\nOverall bit rate                         : 1 834 Kbps\nWriting application                      : VirtualDubMod 1.5.10.2 (build 2542/release)\nWriting library                          : VirtualDub build 34807/release\n\nVideo\nID                                       : 0\nFormat                                   : MPEG-4 Visual\nFormat profile                           : Advanced Simple@L5\nFormat settings, BVOP                    : 4\nFormat settings, QPel                    : No\nFormat settings, GMC                     : No warppoints\nFormat settings, Matrix                  : Default (H.263)\nMuxing mode                              : Packed bitstream\nCodec ID                                 : XVID\nCodec ID/Hint                            : XviD\nDuration                                 : 1h 46mn\nBit rate                                 : 1 377 Kbps\nWidth                                    : 720 pixels\nHeight                                   : 384 pixels\nDisplay aspect ratio                     : 1.85:1\nFrame rate                               : 23.976 fps\nColor space                              : YUV\nChroma subsampling                       : 4:2:0\nBit depth                                : 8 bits\nScan type                                : Progressive\nCompression mode                         : Lossy\nBits/(Pixel*Frame)                       : 0.208\nStream size                              : 1.03 GiB (75%)\nWriting library                          : XviD 64\n\nAudio\nID                                       : 1\nFormat                                   : AC-3\nFormat/Info                              : Audio Coding 3\nMode extension                           : CM (complete main)\nFormat settings, Endianness              : Big\nCodec ID                                 : 2000\nDuration                                 : 1h 46mn\nBit rate mode                            : Constant\nBit rate                                 : 448 Kbps\nChannel(s)                               : 6 channels\nChannel positions                        : Front: L C R, Side: L R, LFE\nSampling rate                            : 48.0 KHz\nBit depth                                : 16 bits\nCompression mode                         : Lossy\nDelay relative to video                  : 1s 0ms\nStream size                              : 342 MiB (24%)\nAlignment                                : Split accross interleaves\nInterleave, duration                     : 42 ms (1.00 video frame)\nInterleave, preload duration             : 500 ms\n\n\n\n\n &lt;a href=&quot;\nhttp://www.shotpix.com/images/24865364654944350382.png&quot; rel=&quot;nofollow&quot; target=&quot;_NEW&quot;&gt;\nhttp://www.shotpix.com/images/24865364654944350382.png&lt;/a&gt; &lt;a href=&quot;\nhttp://www.shotpix.com/images/66039048305007537802.png&quot; rel=&quot;nofollow&quot; target=&quot;_NEW&quot;&gt;\nhttp://www.shotpix.com/images/66039048305007537802.png&lt;/a&gt; &lt;a href=&quot;\nhttp://www.shotpix.com/images/76601270590790744824.png&quot; rel=&quot;nofollow&quot; target=&quot;_NEW&quot;&gt;\nhttp://www.shotpix.com/images/76601270590790744824.png&lt;/a&gt; &lt;a href=&quot;\nhttp://www.shotpix.com/images/61647499655120196010.png&quot; rel=&quot;nofollow&quot; target=&quot;_NEW&quot;&gt;\nhttp://www.shotpix.com/images/61647499655120196010.png&lt;/a&gt;","torrent":{"xt":"urn:btih:89cbcc53ad64402d010306b4c0391720329516e4","amp;dn":"Promised.Land.2012.DVDSCR.XVID.AC3.AbsurdiTy","amp;tr":["udp%3A%2F%2Ftracker.openbittorrent.com%3A80","udp%3A%2F%2Fopen.demonii.com%3A1337","udp%3A%2F%2Ftracker.coppersurfer.tk%3A6969","udp%3A%2F%2Fexodus.desync.com%3A6969"],"infoHash":"89cbcc53ad64402d010306b4c0391720329516e4","infoHashBuffer":{"type":"Buffer","data":[137,203,204,83,173,100,64,45,1,3,6,180,192,57,23,32,50,149,22,228]},"announce":[],"urlList":[]}}